<?xml version="1.0" encoding="utf-8"?>
<svg version="1.1" xmlns:xlink="http://www.w3.org/1999/xlink" width="16px" height="16px" xmlns="http://www.w3.org/2000/svg">
  <g transform="matrix(1 0 0 1 -20 -17 )">
    <path d="M 16 8  C 16 12.4183999965481  12.4183999965481 16  8 16  C 3.58160000345187 16  0 12.4183999965481  0 8  C 0 3.58160000345187  3.58160000345187 0  8 0  C 12.4183999965481 0  16 3.58160000345187  16 8  Z M 11.20000000375 8.800000005625  L 8.800000005625 8.800000005625  L 8.800000005625 8  L 11.20000000375 8  L 11.20000000375 6.4000000075  L 9.13120000536625 6.4000000075  L 10.82879999154 4.70320000882563  L 9.69679999867437 3.57119999721  L 8 5.26880000213375  L 6.30320000132563 3.57119999721  L 5.17120000846 4.703999996325  L 6.86879999463375 6.4000000075  L 4.79999999625 6.4000000075  L 4.79999999625 8  L 7.199999994375 8  L 7.199999994375 8.800000005625  L 4.79999999625 8.800000005625  L 4.79999999625 10.399999998125  L 7.199999994375 10.399999998125  L 7.199999994375 11.999999990625  L 8.800000005625 11.999999990625  L 8.800000005625 10.399999998125  L 11.20000000375 10.399999998125  L 11.20000000375 8.800000005625  Z " fill-rule="nonzero" fill="#ffffff" stroke="none" transform="matrix(1 0 0 1 20 17 )" />
  </g>
</svg>