<?xml version="1.0" encoding="utf-8"?>
<svg version="1.1" xmlns:xlink="http://www.w3.org/1999/xlink" width="16px" height="14px" xmlns="http://www.w3.org/2000/svg">
  <g transform="matrix(1 0 0 1 -20 -18 )">
    <path d="M 14.5454545454545 0.700000004921875  L 14.5454545454545 12.5999999901562  L 15.9999999943182 12.5999999901562  L 15.9999999943182 14  L 0 14  L 0 12.5999999901562  L 1.45454545454545 12.5999999901562  L 1.45454545454545 0.700000004921875  C 1.45454545454545 0.313400677322043  1.78015654812144 0  2.1818181875 0  L 13.8181818125 0  C 14.2198434518786 0  14.5454545454545 0.313400677322043  14.5454545454545 0.700000004921875  Z M 7.27272726704545 2.80000000328125  L 7.27272726704545 4.19999999671875  L 5.81818181818182 4.19999999671875  L 5.81818181818182 5.6000000065625  L 7.27272726704545 5.6000000065625  L 7.27272726704545 7  L 8.72727273295454 7  L 8.72727273295454 5.6000000065625  L 10.1818181818182 5.6000000065625  L 10.1818181818182 4.19999999671875  L 8.72727273295454 4.19999999671875  L 8.72727273295454 2.80000000328125  L 7.27272726704545 2.80000000328125  Z M 9.45454544886363 9.80000000328125  L 9.45454544886364 12.5999999901562  L 10.9090909147727 12.5999999901562  L 10.9090909147727 8.3999999934375  L 5.09090908522727 8.3999999934375  L 5.09090908522727 12.5999999901562  L 6.54545455113636 12.5999999901562  L 6.54545455113636 9.80000000328125  L 9.45454544886363 9.80000000328125  Z " fill-rule="nonzero" fill="#ffffff" stroke="none" transform="matrix(1 0 0 1 20 18 )" />
  </g>
</svg>