<?xml version="1.0" encoding="utf-8"?>
<svg version="1.1" xmlns:xlink="http://www.w3.org/1999/xlink" width="17px" height="17px" xmlns="http://www.w3.org/2000/svg">
  <g transform="matrix(1 0 0 1 -20 -17 )">
    <path d="M 0.511619041294643 9.81952381584821  C 0.366411846611375 8.94583352720501  0.366411846611375 8.05416647279499  0.511619041294643 7.18047618415178  C 1.40371428571429 7.201523796875  2.20514285714286 6.77409522544643  2.51680953013393 6.02204761272321  C 2.828476203125 5.26919046986607  2.56376191741071 4.3997618984375  1.9177618984375 3.78533332700893  C 2.43295343267043 3.06428080787586  3.06369472605065 2.43326599696148  3.78452381584821 1.9177618984375  C 4.39976191741071 2.5637618984375  5.26919048883929 2.82847618415178  6.02204761272321 2.51680953013393  C 6.77490475558036 2.20514285714286  7.201523796875 1.40290477455357  7.17966667299107 0.511619041294642  C 8.05388549938406 0.366232402553463  8.94611450061593 0.366232402553463  9.82033332700893 0.511619041294642  C 9.79847618415179 1.40371428571429  10.2259047555804 2.20514285714286  10.9779523872768 2.51680953013393  C 11.7308095301339 2.828476203125  12.6002381015625 2.56376191741071  13.2146666729911 1.9177618984375  C 13.9357191921241 2.43295343267043  14.5667340030385 3.06369472605064  15.0822381015625 3.78452381584821  C 14.4362381015625 4.39976191741071  14.1715238158482 5.26919048883929  14.4831904698661 6.02204761272321  C 14.7948571428571 6.77490475558036  15.5970952254464 7.201523796875  16.4883809587054 7.17966667299107  C 16.6337675974465 8.05388549938406  16.6337675974465 8.94611450061593  16.4883809587054 9.82033332700893  C 15.5962857142857 9.79847618415179  14.7948571428571 10.2259047555804  14.4831904698661 10.9779523872768  C 14.171523796875 11.7308095301339  14.4362380825893 12.6002381015625  15.0822381015625 13.2146666729911  C 14.5670465673296 13.9357191921241  13.9363052739494 14.5667340030385  13.2154761841518 15.0822381015625  C 12.6002380825893 14.4362381015625  11.7308095111607 14.1715238158482  10.9779523872768 14.4831904698661  C 10.2250952444196 14.7948571428571  9.798476203125 15.5970952254464  9.82033332700893 16.4883809587054  C 8.94611450061593 16.6337675974465  8.05388549938407 16.6337675974465  7.17966667299107 16.4883809587054  C 7.20152381584822 15.5962857142857  6.77409524441965 14.7948571428571  6.02204761272322 14.4831904698661  C 5.26919046986607 14.171523796875  4.3997618984375 14.4362380825893  3.78533332700893 15.0822381015625  C 3.06428080787586 14.5670465673296  2.43326599696149 13.9363052739494  1.9177618984375 13.2154761841518  C 2.5637618984375 12.6002380825893  2.82847618415179 11.7308095111607  2.51680953013393 10.9779523872768  C 2.20514285714286 10.2250952444196  1.40290477455357 9.798476203125  0.511619041294644 9.82033332700893  Z M 8.5 10.9285714285714  C 9.84126296387478 10.9285714285714  10.9285714285714 9.84126296387478  10.9285714285714 8.5  C 10.9285714285714 7.15873703612522  9.84126296387478 6.07142857142857  8.5 6.07142857142857  C 7.15873703612522 6.07142857142857  6.07142857142857 7.15873703612522  6.07142857142857 8.5  C 6.07142857142857 9.84126296387478  7.15873703612522 10.9285714285714  8.5 10.9285714285714  Z " fill-rule="nonzero" fill="#ffffff" stroke="none" transform="matrix(1 0 0 1 20 17 )" />
  </g>
</svg>