<?xml version="1.0" encoding="utf-8"?>
<svg version="1.1" xmlns:xlink="http://www.w3.org/1999/xlink" width="16px" height="20px" xmlns="http://www.w3.org/2000/svg">
  <g transform="matrix(1 0 0 1 -1189 -18 )">
    <path d="M 12.4444444375 0  L 12.4444444375 1.81818181043388  L 15.1111111041667 1.81818181043388  C 15.6020308856294 1.81818181043388  16 2.22519567725933  16 2.72727272630424  L 16 19.0909090841297  C 16 19.5929861331746  15.6020308856294 20  15.1111111041667 20  L 0.888888895833333 20  C 0.397969114370652 20  0 19.5929861331746  0 19.0909090841296  L 0 2.72727272630424  C 0 2.22519567725933  0.39796911437065 1.81818181043388  0.888888895833333 1.81818181043388  L 3.5555555625 1.81818181043388  L 3.5555555625 0  L 5.33333333333333 0  L 5.33333333333333 1.81818181043388  L 10.6666666666667 1.81818181043388  L 10.6666666666667 0  L 12.4444444375 0  Z M 12.4444444375 7.27272726304235  L 3.5555555625 7.27272726304235  L 3.5555555625 9.09090909478306  L 12.4444444375 9.09090909478306  L 12.4444444375 7.27272726304235  Z M 12.4444444375 10.9090909052169  L 3.5555555625 10.9090909052169  L 3.5555555625 12.7272727156508  L 12.4444444375 12.7272727156508  L 12.4444444375 10.9090909052169  Z " fill-rule="nonzero" fill="#006eff" stroke="none" transform="matrix(1 0 0 1 1189 18 )" />
  </g>
</svg>