<?xml version="1.0" encoding="utf-8"?>
<svg version="1.1" xmlns:xlink="http://www.w3.org/1999/xlink" width="14px" height="16px" xmlns="http://www.w3.org/2000/svg">
  <g transform="matrix(1 0 0 1 -20 -17 )">
    <path d="M 13.2276666666667 0  C 13.6538888828125 0  14 0.355199999722498  14 0.793600011879995  L 14 15.2063999881199  C 13.9966101407213 15.6435522649889  13.6526790247653 15.9969537380687  13.2276666666667 16  L 0.772333333333333 16  C 0.346088963399572 16.0000002223059  0.000429242406656785 15.6448225459747  0 15.2063999881199  L 0 0.793600011879995  C 0.00338985927866492 0.356447735011004  0.347320975234704 0.00304626193122784  0.772333333333333 0  L 13.2276666666667 0  Z M 6.4501111171875 8.89759999929869  L 4.5251111171875 6.9167999945962  L 3.42533333333333 8.04880000621182  L 6.4501111171875 11.1599999912812  L 10.85 6.63440000106683  L 9.75022221614583 5.50319999570058  L 6.4501111171875 8.89679999304931  Z " fill-rule="nonzero" fill="#ffffff" stroke="none" transform="matrix(1 0 0 1 20 17 )" />
  </g>
</svg>