<?xml version="1.0" encoding="utf-8"?>
<svg version="1.1" xmlns:xlink="http://www.w3.org/1999/xlink" width="14px" height="15px" xmlns="http://www.w3.org/2000/svg">
  <g transform="matrix(1 0 0 1 -20 -111 )">
    <path d="M 13.9999998123215 5.91315790090461  L 13.9999998123215 14.2105263096217  C 13.9999998123215 14.6465405892103  13.6517768465835 15  13.2222220493205 15  L 0.777777950679472 15  C 0.348223153416509 15  0 14.6465405892103  0 14.2105263096217  L 0 5.91315790090461  C -0.000166451505059361 5.66936234583786  0.110643816422263 5.43916413501231  0.300222395774982 5.28947368421053  L 6.52244446332468 0.377368421052633  C 6.80332614559712 0.155585297331717  7.19667385440288 0.155585297331716  7.47755553667532 0.377368421052633  L 13.699777604225 5.28947368421053  C 13.8893561835777 5.43916413501231  14.0001664515051 5.66936234583786  13.9999998123215 5.91315790090461  Z M 7.777777763001 8.68421053248355  L 6.222222236999 8.68421053248355  L 6.222222236999 13.4210526377467  L 7.777777763001 13.4210526377467  L 7.777777763001 8.68421053248355  Z " fill-rule="nonzero" fill="#ffffff" stroke="none" transform="matrix(1 0 0 1 20 111 )" />
  </g>
</svg>